<?xml version="1.0" encoding="UTF-8" standalone="no"?>
<svg
   version="1.1"
   id="svg2480"
   width="103.71349"
   height="132.47226"
   viewBox="0 0 103.71349 132.47226"
   sodipodi:docname="head3.svg"
   inkscape:version="1.0.2 (1.0.2+r75+1)"
   inkscape:export-filename="../../../Imagens/head3.svg"
   inkscape:export-xdpi="100"
   inkscape:export-ydpi="100"
   xmlns:inkscape="http://www.inkscape.org/namespaces/inkscape"
   xmlns:sodipodi="http://sodipodi.sourceforge.net/DTD/sodipodi-0.dtd"
   xmlns="http://www.w3.org/2000/svg"
   xmlns:svg="http://www.w3.org/2000/svg"
   xmlns:rdf="http://www.w3.org/1999/02/22-rdf-syntax-ns#"
   xmlns:cc="http://creativecommons.org/ns#"
   xmlns:dc="http://purl.org/dc/elements/1.1/">
  <metadata
     id="metadata2486">
    <rdf:RDF>
      <cc:Work
         rdf:about="">
        <dc:format>image/svg+xml</dc:format>
        <dc:type
           rdf:resource="http://purl.org/dc/dcmitype/StillImage" />
        <dc:title />
      </cc:Work>
    </rdf:RDF>
  </metadata>
  <defs
     id="defs2484" />
  <sodipodi:namedview
     pagecolor="#ffffff"
     bordercolor="#666666"
     borderopacity="1"
     objecttolerance="10"
     gridtolerance="10"
     guidetolerance="10"
     inkscape:pageopacity="0"
     inkscape:pageshadow="2"
     inkscape:window-width="3840"
     inkscape:window-height="2111"
     id="namedview2482"
     showgrid="false"
     inkscape:snap-bbox="true"
     inkscape:bbox-paths="true"
     inkscape:bbox-nodes="true"
     inkscape:snap-bbox-edge-midpoints="true"
     inkscape:snap-bbox-midpoints="true"
     inkscape:snap-smooth-nodes="true"
     inkscape:snap-text-baseline="true"
     inkscape:snap-center="true"
     inkscape:snap-object-midpoints="true"
     inkscape:snap-midpoints="true"
     inkscape:snap-intersection-paths="true"
     inkscape:object-paths="true"
     inkscape:zoom="2.996875"
     inkscape:cx="-37.095539"
     inkscape:cy="60.85714"
     inkscape:window-x="0"
     inkscape:window-y="0"
     inkscape:window-maximized="1"
     inkscape:current-layer="g2488"
     inkscape:document-rotation="0"
     inkscape:showpageshadow="2"
     inkscape:pagecheckerboard="0"
     inkscape:deskcolor="#d1d1d1" />
  <g
     inkscape:groupmode="layer"
     inkscape:label="Image"
     id="g2488"
     transform="translate(-33.126046,-7.6120497)">
    <g
       id="g905"
       style="display:inline;fill:#00cbff;fill-opacity:1">
      <path
         style="display:inline;fill:#800080;fill-opacity:1"
         d="m 61.144415,23.852833 c -2.054302,0.626092 -4.494962,1.870792 -5.864138,3.570096 -0.760757,0.944186 -1.142439,2.043231 -1.663158,3.099583 -0.129644,0.263003 -0.325588,0.704126 -0.475582,0.95347 -0.05734,0.09531 -0.194916,0.132566 -0.235948,0.235948 -0.04409,0.111081 0.02361,0.241376 0,0.358531 -0.07942,0.394041 -0.396447,0.787199 -0.474201,1.182044 -0.122718,0.623178 0.02234,1.571511 -0.117974,2.132749 -0.01349,0.05395 -0.100387,0.06521 -0.117974,0.117974 -0.05028,0.150831 -0.06161,1.701407 0,1.882054 0.01858,0.05449 0.08141,0.08141 0.122122,0.122122 0.03933,0.07865 0.09665,0.150641 0.117974,0.235948 0.169701,0.678806 0.441965,1.34153 0.71107,2.012471 0.09484,0.236456 0.277664,0.351164 0.359452,0.592174 0.09185,0.270651 0.185254,0.579729 0.353922,0.832731 0.120669,0.181003 0.348791,0.292524 0.469131,0.473739 0.301763,0.454413 0.7865,0.982969 1.182966,1.184349 0.254334,0.129185 0.03407,0.07508 0.114287,0.234565 0.149382,0.297014 0.510644,0.634713 0.630885,0.788491 0.04791,0.06128 -0.02021,0.347307 0,0.40784 0.01691,0.05066 0.08494,0.07067 0.106914,0.119356 0.08722,0.193231 -0.06701,0.503131 0,0.704158 0.02781,0.08342 0.09665,0.15064 0.117974,0.235948 0.04076,0.163045 -0.07554,0.440532 0,0.58987 0.108398,0.214285 0.151203,0.423894 0.23733,0.674203 0.03839,0.111555 -0.03731,0.242002 0,0.353922 0.01759,0.05276 0.100388,0.06521 0.117974,0.117974 0.02487,0.07461 -0.0157,0.158882 0,0.235948 0.101067,0.496072 0.288259,1.078518 0.474662,1.547948 0.247103,0.622299 0.567139,1.364131 0.95393,1.911087 0.09929,0.140404 0.260075,0.22971 0.359452,0.370051 0.104174,0.147116 0.139482,0.335798 0.244243,0.482496 0.05715,0.08003 0.660993,0.649879 0.725817,0.723973 0.368372,0.42105 0.61648,0.850084 1.054854,1.204625 0.150415,0.121651 1.09235,0.668552 1.261308,0.782039 1.766413,1.186486 2.763357,1.622256 4.787164,2.262244 0.924879,0.292475 0.833554,0.371976 1.871455,0.561298 0.402233,0.07337 0.816003,0.07046 1.21799,0.145164 0.34212,0.06358 0.667485,0.200744 1.00877,0.268667 2.777727,0.552831 5.547154,0.745345 8.330072,0.117513 1.351081,-0.304806 2.792721,-1.141384 4.04614,-1.723987 1.029927,-0.478722 2.125174,-0.786067 3.162257,-1.243336 1.541693,-0.67976 2.948567,-1.823779 4.057661,-3.078845 2.032594,-2.300112 2.542974,-4.558869 3.095896,-7.48536 0.180979,-0.95788 0.449036,-1.931375 0.530423,-2.904649 0.05327,-0.637098 -0.06259,-1.29102 0,-1.927216 0.01974,-0.200603 0.09815,-0.392501 0.117974,-0.593096 0.142486,-1.442119 0,-2.966293 0,-4.418035 0,-0.788311 0.129281,-1.701766 0,-2.477454 0.04184,-0.240208 -0.195032,-0.382091 -0.235948,-0.589871 -0.02339,-0.118765 0.02339,-0.244373 0,-0.363138 -0.08342,-0.423637 -0.387431,-0.819042 -0.596322,-1.184349 -0.893475,-1.562497 -1.754196,-2.300273 -3.210184,-3.327236 -0.385494,-0.271903 -0.825078,-0.325439 -1.20739,-0.596322 -0.141195,-0.100041 -0.228939,-0.264498 -0.371434,-0.362678 -0.154853,-0.106694 -0.34336,-0.15431 -0.508763,-0.243782 -0.921286,-0.498351 -1.803698,-1.040095 -2.735062,-1.497256 -0.481296,-0.236245 -0.334605,-0.306663 -0.853007,-0.601391 -0.314368,-0.178728 -0.87333,-0.349807 -1.207852,-0.47374 -0.683272,-0.253136 -0.263691,-0.02431 -0.951626,-0.117974 -1.508234,-0.205339 0.685372,-0.07033 -1.094025,-0.25945 -0.358355,-0.03809 -0.723023,0.04044 -1.081121,0 -0.56112,-0.06336 -1.109764,-0.178915 -1.670991,-0.2424 -1.130569,-0.127888 -2.355007,-0.0046 -3.471017,0.117974 -0.740223,0.08129 -1.507322,-0.08167 -2.247497,0 -0.716768,0.07909 -1.429505,0.147738 -2.140584,0.237791 -0.539234,0.06829 -1.115916,-0.08929 -1.651636,0 -0.122664,0.02044 -0.231258,0.09753 -0.353922,0.117974 -0.765237,0.12754 -1.594244,-0.127539 -2.35948,0 -0.45809,0.07635 -0.984514,0.169537 -1.419836,0.353923 -0.13485,0.05712 -0.2343,0.181089 -0.36913,0.238252 -0.149758,0.06349 -0.323823,0.05469 -0.473278,0.118895 -0.439011,0.18859 -0.699721,0.605539 -1.202322,0.605539"
         id="path2"
         inkscape:label="eye and mother background" />
      <path
         id="path2492"
         style="display:inline;opacity:1;fill:#f9f9f9;fill-opacity:1;stroke:#000000;stroke-width:0.102;stroke-linecap:round;stroke-dasharray:none;stroke-opacity:1"
         d="m 55.796875,7.6132812 c -0.560182,0.017952 -1.098084,0.2236204 -1.527344,0.5839844 -1.058043,0.8867507 -1.197068,2.4632494 -0.310547,3.5214844 l 5.433594,7.388672 c -2.744176,1.784846 -5.187564,4.078927 -7.175781,6.822266 C 49.188264,25.2699 46.191622,24.471534 43.236328,23.537109 44.956237,28.963834 46.215255,34.525858 47,40.164062 c 0.323687,3.296344 0.651531,6.478082 0.865234,9.449219 0.0068,0.13996 0.01331,0.279935 0.01953,0.419922 l 0.0039,0.09375 0.0059,0.191406 c 0.0085,0.218073 0.01633,0.436173 0.02344,0.654297 0.0081,0.250624 0.01525,0.501276 0.02148,0.751953 l 0.002,0.09375 c 0.0055,0.250633 0.01005,0.501289 0.01367,0.751953 l 0.002,0.09375 c 0.0035,0.250642 0.0061,0.501294 0.0078,0.751954 0.0015,0.233721 0.0021,0.467444 0.002,0.701172 -2.26e-4,3.666971 -0.199739,7.331223 -0.597656,10.976562 -0.06106,0.561087 -0.126823,1.121653 -0.197266,1.681641 -0.03529,0.279447 -0.07175,0.558747 -0.109375,0.83789 -0.07541,0.559253 -0.155486,1.117869 -0.240234,1.675781 -0.08453,0.558028 -0.17373,1.115336 -0.267578,1.671876 -0.09366,0.55615 -0.191975,1.111507 -0.294922,1.666015 -0.05158,0.276911 -0.104315,0.553606 -0.158204,0.830078 -0.108007,0.553665 -0.220641,1.106419 -0.33789,1.658203 -0.05809,0.276288 -0.117337,0.552332 -0.177734,0.828125 -0.121711,0.550524 -0.248015,1.100023 -0.378907,1.648438 -0.130838,0.548647 -0.266259,1.096192 -0.40625,1.642578 -0.139976,0.546119 -0.284513,1.09106 -0.433593,1.634766 v 0.002 c -0.02848,0.10291 -0.05713,0.205775 -0.08594,0.308594 -1.336898,4.818357 -3.029028,9.531119 -5.0625,14.099609 0,0 -0.734719,1.261701 -1.691406,3.369141 -1.675516,4.068605 -4.021909,10.994475 -4.34961,18.564455 -0.132438,3.05938 -0.0549,5.93725 0.75586,8.4668 0.810758,2.52954 2.271859,4.78448 5.376953,6.91406 6.210188,4.25917 19.38424,7.58924 45.121094,7.48828 24.367004,-0.0956 39.761574,-6.22712 47.042964,-13.38281 3.6407,-3.57785 5.27773,-7.32021 5.36133,-10.83984 0.0836,-3.51965 -1.35409,-6.9657 -4.55274,-10.08204 -3.51125,-3.4209 -6.6659,-4.49386 -9.82031,-4.41406 -3.15439,0.0798 -6.45683,1.4606 -9.71483,3.63086 -6.51605,4.34052 -12.42764,11.58806 -16.873055,15.54883 -7.051551,6.28279 -20.742276,11.80717 -34.158203,8.60156 -12.728849,-3.04144 -18.859375,-7.67969 -18.859375,-7.67969 -1.094319,-0.84191 -1.141171,-1.57436 -0.299264,-2.66868 0.842508,-1.09368 2.254283,-0.13459 3.348092,0.70775 0,0 4.975224,3.91066 16.972656,6.77734 11.310356,2.70251 24.023021,-2.43943 29.669922,-7.4707 3.749745,-3.34095 9.971387,-11.01163 17.427737,-15.97852 0.26113,-0.17394 0.52975,-0.33637 0.79492,-0.50391 -1.30442,-3.163711 -2.42382,-7.054686 -2.42382,-7.054685 -2.03272,-4.567911 -3.72419,-9.280017 -5.06055,-14.097657 -0.0754,-0.271824 -0.14958,-0.543962 -0.22266,-0.816406 -0.0734,-0.272483 -0.14567,-0.545272 -0.2168,-0.818359 -0.0708,-0.273145 -0.14046,-0.546585 -0.20899,-0.820313 -0.0682,-0.273157 -0.13525,-0.546596 -0.20117,-0.820312 -0.0662,-0.274466 -0.13136,-0.549208 -0.19531,-0.824219 -0.0636,-0.273177 -0.12614,-0.546617 -0.1875,-0.820313 l -0.002,-0.0059 c -0.0617,-0.274486 -0.12224,-0.549228 -0.18164,-0.824219 -0.0591,-0.275798 -0.11703,-0.551843 -0.17382,-0.828125 -0.0571,-0.275807 -0.11313,-0.551851 -0.16797,-0.828125 -0.0552,-0.277116 -0.10923,-0.554462 -0.16211,-0.832031 -0.0519,-0.27713 -0.10273,-0.554477 -0.15235,-0.832031 -0.029,-0.160087 -0.0577,-0.320244 -0.0859,-0.480469 -0.0331,-0.187408 -0.0656,-0.374909 -0.0977,-0.5625 -0.0352,-0.208225 -0.0697,-0.416559 -0.10352,-0.625 -0.0454,-0.277809 -0.0897,-0.555806 -0.13281,-0.833984 -0.0435,-0.279119 -0.0858,-0.558418 -0.12695,-0.837891 -0.0409,-0.27913 -0.0806,-0.558429 -0.11914,-0.837891 -0.0383,-0.279141 -0.0754,-0.55844 -0.11133,-0.83789 -0.0363,-0.2798 -0.0715,-0.55975 -0.10547,-0.839844 -0.0337,-0.279811 -0.0662,-0.559761 -0.0977,-0.839844 -0.0214,-0.191346 -0.0422,-0.382756 -0.0625,-0.574218 -0.018,-0.167925 -0.0356,-0.335894 -0.0527,-0.503907 -0.0278,-0.275931 -0.0545,-0.551975 -0.0801,-0.828125 -0.0154,-0.163375 -0.0303,-0.326787 -0.04492,-0.490234 l -0.01172,-0.132813 c -0.01752,-0.199819 -0.03445,-0.39969 -0.05078,-0.599609 -0.01207,-0.153619 -0.02379,-0.307263 -0.03516,-0.460938 l -0.0039,-0.04687 c -0.0192,-0.25579 -0.03743,-0.511651 -0.05469,-0.767579 -0.01502,-0.217401 -0.02935,-0.43485 -0.04297,-0.652343 -0.01746,-0.281832 -0.03373,-0.563733 -0.04883,-0.845704 -0.01032,-0.193981 -0.02009,-0.387993 -0.0293,-0.582031 -0.0075,-0.14712 -0.01466,-0.294255 -0.02148,-0.441406 -0.0092,-0.221977 -0.01766,-0.443983 -0.02539,-0.666016 -0.01029,-0.281862 -0.01941,-0.563765 -0.02734,-0.845703 -0.0058,-0.206364 -0.01104,-0.412745 -0.01563,-0.61914 -0.0036,-0.151034 -0.0068,-0.302076 -0.0098,-0.453125 v -0.03516 c -0.0049,-0.259098 -0.0088,-0.518215 -0.01172,-0.777343 v -0.177735 c -0.0021,-0.237625 -0.0034,-0.475256 -0.0039,-0.71289 v -0.08008 c 1.25e-4,-0.281906 0.0014,-0.563809 0.0039,-0.845704 0.0099,-1.217273 0.04185,-2.434267 0.0957,-3.65039 v -0.002 c 0.292563,-3.498121 0.53287,-6.372261 0.86718,-9.449219 0.78453,-5.639525 2.04355,-11.202862 3.76367,-16.63086 -2.95468,0.933711 -5.950663,1.731421 -8.978506,2.390626 -1.646309,-2.271423 -3.605908,-4.234499 -5.78711,-5.857422 l 6.14255,-8.353474 C 96.595505,10.660515 96.45648,9.0840166 95.398438,8.1972656 94.969178,7.8369016 94.431276,7.6312333 93.871094,7.6132812 93.10467,7.5892409 92.369606,7.9182564 91.876953,8.5058594 l -2.226562,2.6542966 -3.8125,-3.1972654 C 85.575132,7.7429098 85.244974,7.6195312 84.902344,7.6132812 c -0.453278,-0.00876 -0.886203,0.1879563 -1.177735,0.5351563 -0.532366,0.634793 -0.449292,1.5809693 0.185547,2.1132815 l 3.814453,3.199219 -2.478515,3.996093 C 81.707435,15.745394 77.804856,14.812639 73.785156,14.8125 c -0.06315,-2.28e-4 -0.126302,-2.28e-4 -0.189453,0 -3.340376,0.02432 -6.596158,0.693987 -9.626953,1.914062 l -2.025391,-3.265624 3.814453,-3.199219 c 0.634839,-0.5323121 0.717912,-1.4784891 0.185547,-2.1132815 -0.291533,-0.3472 -0.724456,-0.543918 -1.177734,-0.5351563 -0.342629,0.00625 -0.672788,0.1296282 -0.935547,0.3496094 l -3.8125,3.1972654 -2.226562,-2.6542966 C 57.298364,7.9182562 56.563299,7.5892408 55.796875,7.6132812 Z m 8.400391,17.4863278 c 4.766465,5.47e-4 8.630312,3.864395 8.630859,8.63086 5.31e-4,4.767228 -3.863631,8.632265 -8.630859,8.632812 -4.767991,5.32e-4 -8.633344,-3.864821 -8.632813,-8.632812 5.47e-4,-4.767229 3.865584,-8.631392 8.632813,-8.63086 z m 19.173828,0 c 4.767228,-5.31e-4 8.632265,3.863632 8.632812,8.63086 5.31e-4,4.76799 -3.864822,8.633343 -8.632812,8.632812 -4.767228,-5.47e-4 -8.631391,-3.865584 -8.63086,-8.632812 5.47e-4,-4.766466 3.864394,-8.630313 8.63086,-8.63086 z m -9.779297,16.734375 6.087891,2.396485 -1.50586,5.404297 -4.386719,5.341796 -4.197265,-5.005859 -1.701172,-5.738281 z"
         sodipodi:nodetypes="ccccccccccccccccccccccccccccccccccssssscssssscccsssccscccccccccccccccccccccccccccccccccccsccccccccccccccccccccccccccccccccccccccsccsssssccccccc"
         inkscape:label="body" />
      <path
         id="path2669-9"
         style="font-variation-settings:normal;vector-effect:none;fill:#ffffff;fill-opacity:1;stroke:none;stroke-width:0.517008;stroke-linecap:round;stroke-linejoin:miter;stroke-miterlimit:4;stroke-dasharray:none;stroke-dashoffset:0;stroke-opacity:1;stop-color:#000000"
         d="m 65.175781,28.017578 a 5,5 0 0 1 0.355469,1.851563 5,5 0 0 1 -5,5 5,5 0 0 1 -2.091797,-0.458985 5.7966113,5.7966113 0 0 0 5.757813,5.117188 5.7966113,5.7966113 0 0 0 5.796875,-5.796875 5.7966113,5.7966113 0 0 0 -4.81836,-5.712891 z"
         inkscape:label="left eye" />
      <path
         id="path2669-9-0"
         style="font-variation-settings:normal;display:inline;vector-effect:none;fill:#ffffff;fill-opacity:1;stroke:none;stroke-width:0.517008;stroke-linecap:round;stroke-linejoin:miter;stroke-miterlimit:4;stroke-dasharray:none;stroke-dashoffset:0;stroke-opacity:1;stop-color:#000000"
         d="m 84.330926,27.976192 a 5,5 0 0 1 0.355469,1.851563 5,5 0 0 1 -5,5 5,5 0 0 1 -2.091797,-0.458985 5.7966113,5.7966113 0 0 0 5.757813,5.117188 5.7966113,5.7966113 0 0 0 5.796875,-5.796875 5.7966113,5.7966113 0 0 0 -4.81836,-5.712891 z"
         inkscape:label="right eye" />
      <path
         style="fill:#ff00ff;fill-opacity:1"
         d="m 43.218435,23.476932 c 0,0 7.262569,7.547131 4.120375,17.001307 -0.334717,1.007091 -4.120375,-17.001307 -4.120375,-17.001307 z"
         id="path3"
         sodipodi:nodetypes="csc"
         inkscape:label="left ear" />
      <path
         style="fill:#ff00ff;fill-opacity:1;stroke-width:1.27933"
         d="m 104.28745,23.540852 c 0,0 -5.480921,3.611698 -3.91637,16.915862 0.16645,1.415436 3.91637,-16.915862 3.91637,-16.915862 z"
         id="path4"
         sodipodi:nodetypes="csc"
         inkscape:label="right ear"
         inkscape:transform-center-x="0.46645798"
         inkscape:transform-center-y="-0.042388498" />
      <path
         style="display:inline;fill:#ff00ff;fill-opacity:1"
         d="m 76.659292,51.58439 -2.859673,3.378351 -2.854342,-3.421723 c 0,0 0.281281,-2.688904 2.977621,-2.679717 2.24203,0.0076 2.736394,2.723089 2.736394,2.723089 z"
         id="path7"
         sodipodi:nodetypes="cccsc"
         inkscape:label="tongue" />
      <g
         id="g12"
         inkscape:label="makeup"
         transform="translate(0.31982422)">
        <g
           id="g11"
           inkscape:label="right makeup"
           style="display:inline"
           transform="translate(-1.7241211,-5.0224609)">
          <rect
             style="fill:#ffff00;fill-opacity:1"
             id="rect10"
             width="13.798656"
             height="2.2097397"
             x="52.049068"
             y="55.145653"
             inkscape:label="yellow"
             ry="0" />
          <rect
             style="fill:#00ff00;fill-opacity:1"
             id="rect11"
             width="13.79298"
             height="2.071682"
             x="52.070591"
             y="53.079487"
             inkscape:label="green"
             ry="0" />
        </g>
        <g
           id="g8"
           inkscape:label="left makeup"
           style="display:inline"
           transform="translate(30.494295,-5.0224613)">
          <rect
             style="fill:#ffff00;fill-opacity:1"
             id="rect8"
             width="13.798656"
             height="2.2097397"
             x="52.049068"
             y="55.145653"
             inkscape:label="yellow"
             ry="0" />
          <rect
             style="fill:#00ff00;fill-opacity:1"
             id="rect7"
             width="13.79298"
             height="2.071682"
             x="52.070591"
             y="53.079487"
             inkscape:label="green"
             ry="0" />
        </g>
      </g>
    </g>
  </g>
</svg>
